<svg xmlns="http://www.w3.org/2000/svg" version="1.1" xmlns:xlink="http://www.w3.org/1999/xlink" viewBox="0 0 200 200"><rect width="200" height="200" fill="url('#gradient')"></rect><defs><linearGradient id="gradient" gradientTransform="rotate(190 0.5 0.5)"><stop offset="0%" stop-color="#20b2a6"></stop><stop offset="100%" stop-color="#393a3f"></stop></linearGradient></defs><g><g fill="#000000" transform="matrix(5.401657874905802,0,0,5.401657874905802,30.156876014805235,138.405163078265)" stroke="#ffffff" stroke-width="0.4"><path d="M9.98 0L9.15-2.66L4.45-2.66L3.63 0L-0.03 0L5.19-14.22L8.41-14.22L13.66 0L9.98 0ZM6.80-10.23L5.27-5.30L8.33-5.30L6.80-10.23ZM20.31-4.82L18.13-4.82L18.13 0L14.70 0L14.70-14.22L20.37-14.22Q22.00-14.22 23.26-13.62Q24.51-13.02 25.20-11.91Q25.89-10.80 25.89-9.39L25.89-9.39Q25.89-7.31 24.40-6.07Q22.91-4.82 20.31-4.82L20.31-4.82ZM18.13-11.57L18.13-7.47L20.37-7.47Q21.37-7.47 21.89-7.97Q22.41-8.47 22.41-9.38L22.41-9.38Q22.41-10.37 21.88-10.97Q21.34-11.56 20.41-11.57L20.41-11.57L18.13-11.57Z"></path></g></g></svg>